<svg width="1024" height="1024" viewBox="0 0 1024 1024" fill="none" xmlns="http://www.w3.org/2000/svg">
  <!-- Transparent background (Android adaptive icon uses separate background color) -->

  <!-- Main icon circle -->
  <circle cx="512" cy="512" r="280" fill="url(#adaptGrad)"/>
  <circle cx="512" cy="512" r="250" fill="none" stroke="white" stroke-opacity="0.1" stroke-width="3"/>

  <!-- Chart trend line -->
  <path d="M330 650 L410 580 L470 610 L530 530 L590 560 L650 430 L710 470" stroke="#10B981" stroke-width="16" stroke-linecap="round" stroke-linejoin="round" fill="none"/>

  <!-- Chart area fill -->
  <path d="M330 650 L410 580 L470 610 L530 530 L590 560 L650 430 L710 470 L710 690 L330 690 Z" fill="#10B981" fill-opacity="0.18"/>

  <!-- Grid lines -->
  <line x1="320" y1="490" x2="720" y2="490" stroke="white" stroke-opacity="0.06" stroke-width="2"/>
  <line x1="320" y1="550" x2="720" y2="550" stroke="white" stroke-opacity="0.06" stroke-width="2"/>
  <line x1="320" y1="610" x2="720" y2="610" stroke="white" stroke-opacity="0.06" stroke-width="2"/>

  <!-- Candlesticks -->
  <line x1="390" y1="540" x2="390" y2="640" stroke="#EF4444" stroke-width="10" stroke-linecap="round"/>
  <line x1="450" y1="500" x2="450" y2="600" stroke="#10B981" stroke-width="10" stroke-linecap="round"/>
  <line x1="620" y1="450" x2="620" y2="560" stroke="#10B981" stroke-width="10" stroke-linecap="round"/>

  <!-- AI badge -->
  <circle cx="690" cy="370" r="40" fill="#F59E0B"/>
  <circle cx="690" cy="370" r="56" fill="none" stroke="#F59E0B" stroke-width="4" opacity="0.3"/>
  <text x="690" y="382" font-size="32" font-weight="800" fill="white" text-anchor="middle" font-family="system-ui">AI</text>

  <defs>
    <linearGradient id="adaptGrad" x1="232" y1="232" x2="792" y2="792">
      <stop stop-color="#3B82F6"/>
      <stop offset="1" stop-color="#1E40AF"/>
    </linearGradient>
  </defs>
</svg>
